<svg width="880" height="880" viewBox="0 0 880 880" fill="none" xmlns="http://www.w3.org/2000/svg">
<circle cx="441" cy="431" r="49.5" stroke="#0077B6"/>
<path d="M455.584 449.75V445.583C455.584 443.373 454.706 441.254 453.143 439.691C451.58 438.128 449.46 437.25 447.25 437.25H434.75C432.54 437.25 430.421 438.128 428.858 439.691C427.295 441.254 426.417 443.373 426.417 445.583V449.75" stroke="#0077B6" stroke-width="2" stroke-linecap="round" stroke-linejoin="round"/>
<path d="M441 428.917C445.603 428.917 449.334 425.186 449.334 420.583C449.334 415.981 445.603 412.25 441 412.25C436.398 412.25 432.667 415.981 432.667 420.583C432.667 425.186 436.398 428.917 441 428.917Z" stroke="#0077B6" stroke-width="2" stroke-linecap="round" stroke-linejoin="round"/>
<path d="M423.476 484.455H425.969L429.768 491.067H429.925L433.724 484.455H436.217L430.94 493.29V499H428.753V493.29L423.476 484.455ZM440.667 499.22C439.645 499.22 438.752 498.986 437.99 498.517C437.227 498.048 436.636 497.393 436.214 496.55C435.793 495.707 435.582 494.722 435.582 493.595C435.582 492.464 435.793 491.474 436.214 490.626C436.636 489.779 437.227 489.121 437.99 488.652C438.752 488.183 439.645 487.949 440.667 487.949C441.69 487.949 442.583 488.183 443.345 488.652C444.107 489.121 444.699 489.779 445.12 490.626C445.542 491.474 445.752 492.464 445.752 493.595C445.752 494.722 445.542 495.707 445.12 496.55C444.699 497.393 444.107 498.048 443.345 498.517C442.583 498.986 441.69 499.22 440.667 499.22ZM440.674 497.438C441.337 497.438 441.886 497.262 442.322 496.912C442.758 496.562 443.08 496.095 443.288 495.513C443.501 494.93 443.608 494.289 443.608 493.588C443.608 492.892 443.501 492.253 443.288 491.67C443.08 491.083 442.758 490.612 442.322 490.257C441.886 489.902 441.337 489.724 440.674 489.724C440.007 489.724 439.453 489.902 439.012 490.257C438.577 490.612 438.252 491.083 438.039 491.67C437.831 492.253 437.727 492.892 437.727 493.588C437.727 494.289 437.831 494.93 438.039 495.513C438.252 496.095 438.577 496.562 439.012 496.912C439.453 497.262 440.007 497.438 440.674 497.438ZM454.783 494.476V488.091H456.914V499H454.826V497.111H454.712C454.461 497.693 454.059 498.179 453.505 498.567C452.956 498.95 452.272 499.142 451.452 499.142C450.752 499.142 450.131 498.988 449.592 498.68C449.057 498.368 448.635 497.906 448.327 497.295C448.024 496.685 447.873 495.929 447.873 495.03V488.091H449.996V494.774C449.996 495.518 450.202 496.109 450.614 496.55C451.026 496.99 451.561 497.21 452.219 497.21C452.617 497.21 453.013 497.111 453.406 496.912C453.803 496.713 454.132 496.412 454.393 496.01C454.658 495.607 454.788 495.096 454.783 494.476Z" fill="#7D7D7D"/>
<rect x="422.5" y="459.5" width="37" height="21" rx="1.5" fill="#ADE8F4"/>
<rect x="422.5" y="459.5" width="37" height="21" rx="1.5" stroke="#0077B6"/>
<path d="M426.932 473.614V472.455L432.045 464.364H432.886V466.159H432.318L428.455 472.273V472.364H435.341V473.614H426.932ZM432.409 476V473.261V472.722V464.364H433.75V476H432.409ZM441.016 476.159C440.16 476.159 439.43 475.926 438.828 475.46C438.226 474.991 437.766 474.311 437.447 473.42C437.129 472.527 436.97 471.447 436.97 470.182C436.97 468.924 437.129 467.85 437.447 466.96C437.769 466.066 438.232 465.384 438.834 464.915C439.44 464.441 440.167 464.205 441.016 464.205C441.864 464.205 442.589 464.441 443.192 464.915C443.798 465.384 444.26 466.066 444.578 466.96C444.9 467.85 445.061 468.924 445.061 470.182C445.061 471.447 444.902 472.527 444.584 473.42C444.266 474.311 443.805 474.991 443.203 475.46C442.601 475.926 441.872 476.159 441.016 476.159ZM441.016 474.909C441.864 474.909 442.523 474.5 442.993 473.682C443.463 472.864 443.697 471.697 443.697 470.182C443.697 469.174 443.589 468.316 443.374 467.608C443.161 466.9 442.855 466.36 442.453 465.989C442.055 465.617 441.576 465.432 441.016 465.432C440.175 465.432 439.518 465.847 439.044 466.676C438.571 467.502 438.334 468.67 438.334 470.182C438.334 471.189 438.44 472.045 438.652 472.75C438.864 473.455 439.169 473.991 439.567 474.358C439.968 474.725 440.451 474.909 441.016 474.909ZM446.97 476V474.977L450.811 470.773C451.262 470.28 451.633 469.852 451.925 469.489C452.216 469.121 452.432 468.777 452.572 468.455C452.716 468.129 452.788 467.788 452.788 467.432C452.788 467.023 452.69 466.669 452.493 466.369C452.3 466.07 452.035 465.839 451.697 465.676C451.36 465.513 450.982 465.432 450.561 465.432C450.114 465.432 449.724 465.525 449.391 465.71C449.061 465.892 448.805 466.148 448.624 466.477C448.446 466.807 448.357 467.193 448.357 467.636H447.016C447.016 466.955 447.173 466.356 447.487 465.841C447.802 465.326 448.23 464.924 448.771 464.636C449.317 464.348 449.929 464.205 450.607 464.205C451.288 464.205 451.893 464.348 452.419 464.636C452.946 464.924 453.358 465.312 453.658 465.801C453.957 466.29 454.107 466.833 454.107 467.432C454.107 467.86 454.029 468.278 453.874 468.688C453.722 469.093 453.457 469.545 453.078 470.045C452.703 470.542 452.182 471.148 451.516 471.864L448.902 474.659V474.75H454.311V476H446.97Z" fill="#0096C7"/>
<circle cx="688" cy="431" r="49.5" stroke="#0077B6"/>
<path d="M671.334 447.667H704.667C705.772 447.667 706.832 447.228 707.613 446.446C708.395 445.665 708.834 444.605 708.834 443.5V422.667C708.834 421.562 708.395 420.502 707.613 419.72C706.832 418.939 705.772 418.5 704.667 418.5H688.146C687.46 418.496 686.785 418.323 686.182 417.996C685.578 417.669 685.065 417.198 684.688 416.625L682.979 414.125C682.602 413.552 682.089 413.081 681.486 412.754C680.882 412.427 680.207 412.254 679.521 412.25H671.334C670.229 412.25 669.169 412.689 668.387 413.47C667.606 414.252 667.167 415.312 667.167 416.417V443.5C667.167 445.792 669.042 447.667 671.334 447.667Z" stroke="#0077B6" stroke-width="2" stroke-linecap="round" stroke-linejoin="round"/>
<path d="M659.098 499V484.455H668.118V486.344H661.293V490.776H667.472V492.658H661.293V499H659.098ZM673.532 499.241C672.841 499.241 672.216 499.114 671.657 498.858C671.098 498.598 670.656 498.221 670.329 497.729C670.007 497.236 669.846 496.633 669.846 495.918C669.846 495.302 669.964 494.795 670.201 494.398C670.438 494 670.757 493.685 671.16 493.453C671.562 493.221 672.012 493.046 672.509 492.928C673.006 492.809 673.513 492.719 674.029 492.658C674.683 492.582 675.213 492.52 675.62 492.473C676.027 492.421 676.323 492.338 676.508 492.224C676.692 492.111 676.785 491.926 676.785 491.67V491.621C676.785 491 676.61 490.52 676.259 490.179C675.914 489.838 675.397 489.668 674.711 489.668C673.996 489.668 673.433 489.826 673.021 490.143C672.613 490.456 672.332 490.804 672.175 491.188L670.18 490.733C670.416 490.07 670.762 489.535 671.217 489.128C671.676 488.716 672.204 488.418 672.8 488.233C673.397 488.044 674.024 487.949 674.683 487.949C675.118 487.949 675.58 488.001 676.067 488.105C676.56 488.205 677.019 488.389 677.445 488.659C677.876 488.929 678.229 489.315 678.504 489.817C678.778 490.314 678.915 490.96 678.915 491.756V499H676.842V497.509H676.756C676.619 497.783 676.413 498.053 676.138 498.318C675.864 498.583 675.511 498.804 675.08 498.979C674.649 499.154 674.133 499.241 673.532 499.241ZM673.994 497.537C674.581 497.537 675.083 497.421 675.499 497.189C675.921 496.957 676.24 496.654 676.458 496.28C676.681 495.901 676.792 495.496 676.792 495.065V493.659C676.716 493.735 676.569 493.806 676.352 493.872C676.138 493.934 675.895 493.988 675.62 494.036C675.345 494.078 675.078 494.118 674.817 494.156C674.557 494.189 674.339 494.218 674.164 494.241C673.752 494.294 673.376 494.381 673.035 494.504C672.699 494.627 672.429 494.805 672.225 495.037C672.026 495.264 671.927 495.567 671.927 495.946C671.927 496.472 672.121 496.869 672.509 497.139C672.897 497.404 673.392 497.537 673.994 497.537ZM681.494 499V488.091H683.532V489.866H683.667C683.895 489.265 684.266 488.796 684.782 488.46C685.298 488.119 685.916 487.949 686.636 487.949C687.365 487.949 687.976 488.119 688.468 488.46C688.966 488.801 689.333 489.27 689.569 489.866H689.683C689.943 489.284 690.358 488.82 690.926 488.474C691.494 488.124 692.171 487.949 692.957 487.949C693.947 487.949 694.754 488.259 695.379 488.879C696.009 489.5 696.324 490.435 696.324 491.685V499H694.2V491.884C694.2 491.145 693.999 490.61 693.596 490.278C693.194 489.947 692.713 489.781 692.154 489.781C691.463 489.781 690.926 489.994 690.542 490.42C690.159 490.842 689.967 491.384 689.967 492.047V499H687.85V491.749C687.85 491.157 687.666 490.681 687.297 490.321C686.927 489.961 686.447 489.781 685.855 489.781C685.452 489.781 685.081 489.888 684.74 490.101C684.404 490.309 684.131 490.6 683.923 490.974C683.719 491.348 683.618 491.782 683.618 492.274V499H681.494ZM698.92 499V488.091H701.043V499H698.92ZM699.992 486.408C699.623 486.408 699.306 486.285 699.04 486.038C698.78 485.787 698.65 485.489 698.65 485.143C698.65 484.793 698.78 484.495 699.04 484.249C699.306 483.998 699.623 483.872 699.992 483.872C700.362 483.872 700.676 483.998 700.937 484.249C701.202 484.495 701.335 484.793 701.335 485.143C701.335 485.489 701.202 485.787 700.937 486.038C700.676 486.285 700.362 486.408 699.992 486.408ZM705.774 484.455V499H703.65V484.455H705.774ZM709.723 503.091C709.406 503.091 709.117 503.065 708.857 503.013C708.596 502.965 708.402 502.913 708.274 502.857L708.786 501.116C709.174 501.221 709.519 501.266 709.822 501.251C710.125 501.237 710.393 501.124 710.625 500.911C710.862 500.697 711.07 500.349 711.25 499.866L711.513 499.142L707.521 488.091H709.794L712.557 496.557H712.67L715.433 488.091H717.713L713.217 500.456C713.009 501.024 712.744 501.505 712.422 501.898C712.1 502.295 711.716 502.594 711.271 502.793C710.826 502.991 710.31 503.091 709.723 503.091Z" fill="#7D7D7D"/>
<rect x="676.5" y="459.5" width="23" height="21" rx="1.5" fill="#ADE8F4"/>
<rect x="676.5" y="459.5" width="23" height="21" rx="1.5" stroke="#0077B6"/>
<path d="M684.634 464.818V475H683.401V466.111H683.341L680.855 467.761V466.509L683.401 464.818H684.634ZM687.073 472.912V471.898L691.548 464.818H692.283V466.389H691.786L688.406 471.739V471.818H694.431V472.912H687.073ZM691.866 475V472.604V472.131V464.818H693.039V475H691.866Z" fill="#0096C7"/>
<circle cx="623" cy="600" r="49.5" stroke="#0077B6"/>
<path d="M606.334 616.667H639.667C640.772 616.667 641.832 616.228 642.613 615.446C643.395 614.665 643.834 613.605 643.834 612.5V591.667C643.834 590.562 643.395 589.502 642.613 588.72C641.832 587.939 640.772 587.5 639.667 587.5H623.146C622.46 587.496 621.785 587.323 621.182 586.996C620.578 586.669 620.065 586.198 619.688 585.625L617.979 583.125C617.602 582.552 617.089 582.081 616.486 581.754C615.882 581.427 615.207 581.254 614.521 581.25H606.334C605.229 581.25 604.169 581.689 603.387 582.47C602.606 583.252 602.167 584.312 602.167 585.417V612.5C602.167 614.792 604.042 616.667 606.334 616.667Z" stroke="#0077B6" stroke-width="2" stroke-linecap="round" stroke-linejoin="round"/>
<path d="M589.598 668V653.455H598.618V655.344H591.793V659.776H597.972V661.658H591.793V668H589.598ZM600.76 668V657.091H602.812V658.824H602.926C603.125 658.237 603.475 657.775 603.977 657.439C604.484 657.098 605.056 656.928 605.696 656.928C605.828 656.928 605.984 656.932 606.164 656.942C606.349 656.951 606.493 656.963 606.598 656.977V659.009C606.512 658.985 606.361 658.959 606.143 658.93C605.925 658.897 605.708 658.881 605.49 658.881C604.988 658.881 604.54 658.987 604.147 659.2C603.759 659.409 603.451 659.7 603.224 660.074C602.997 660.443 602.883 660.865 602.883 661.338V668H600.76ZM608.185 668V657.091H610.309V668H608.185ZM609.258 655.408C608.888 655.408 608.571 655.285 608.306 655.038C608.046 654.787 607.915 654.489 607.915 654.143C607.915 653.793 608.046 653.495 608.306 653.249C608.571 652.998 608.888 652.872 609.258 652.872C609.627 652.872 609.942 652.998 610.202 653.249C610.468 653.495 610.6 653.793 610.6 654.143C610.6 654.489 610.468 654.787 610.202 655.038C609.942 655.285 609.627 655.408 609.258 655.408ZM617.618 668.22C616.543 668.22 615.617 667.991 614.841 667.531C614.069 667.067 613.472 666.416 613.051 665.578C612.634 664.735 612.426 663.748 612.426 662.616C612.426 661.499 612.634 660.514 613.051 659.662C613.472 658.81 614.059 658.144 614.812 657.666C615.57 657.188 616.455 656.949 617.468 656.949C618.084 656.949 618.681 657.051 619.258 657.254C619.836 657.458 620.354 657.777 620.814 658.213C621.273 658.649 621.635 659.214 621.9 659.911C622.165 660.602 622.298 661.442 622.298 662.432V663.185H613.626V661.594H620.217C620.217 661.035 620.103 660.54 619.876 660.109C619.649 659.674 619.329 659.33 618.917 659.08C618.51 658.829 618.032 658.703 617.483 658.703C616.886 658.703 616.365 658.85 615.92 659.143C615.48 659.432 615.139 659.811 614.897 660.28C614.661 660.744 614.542 661.248 614.542 661.793V663.036C614.542 663.765 614.67 664.385 614.926 664.896C615.186 665.408 615.548 665.798 616.012 666.068C616.476 666.333 617.019 666.466 617.639 666.466C618.041 666.466 618.408 666.409 618.74 666.295C619.071 666.177 619.358 666.002 619.599 665.77C619.841 665.538 620.025 665.251 620.153 664.911L622.163 665.273C622.002 665.865 621.713 666.383 621.297 666.828C620.885 667.268 620.366 667.612 619.741 667.858C619.121 668.099 618.413 668.22 617.618 668.22ZM626.528 661.523V668H624.404V657.091H626.442V658.866H626.577C626.828 658.289 627.221 657.825 627.756 657.474C628.296 657.124 628.976 656.949 629.795 656.949C630.538 656.949 631.189 657.105 631.748 657.418C632.307 657.725 632.74 658.185 633.048 658.795C633.355 659.406 633.509 660.161 633.509 661.061V668H631.386V661.317C631.386 660.526 631.18 659.908 630.768 659.463C630.356 659.013 629.79 658.788 629.07 658.788C628.578 658.788 628.14 658.895 627.756 659.108C627.378 659.321 627.077 659.634 626.854 660.045C626.637 660.453 626.528 660.945 626.528 661.523ZM640.191 668.213C639.31 668.213 638.524 667.988 637.833 667.538C637.147 667.084 636.607 666.437 636.214 665.599C635.826 664.757 635.631 663.746 635.631 662.567C635.631 661.388 635.828 660.379 636.221 659.541C636.619 658.703 637.163 658.062 637.854 657.616C638.546 657.171 639.329 656.949 640.205 656.949C640.882 656.949 641.427 657.062 641.839 657.29C642.255 657.512 642.577 657.773 642.805 658.071C643.037 658.369 643.217 658.632 643.344 658.859H643.472V653.455H645.596V668H643.522V666.303H643.344C643.217 666.535 643.032 666.8 642.79 667.098C642.554 667.396 642.227 667.657 641.81 667.879C641.394 668.102 640.854 668.213 640.191 668.213ZM640.66 666.402C641.271 666.402 641.787 666.241 642.208 665.919C642.634 665.592 642.956 665.14 643.174 664.562C643.397 663.985 643.508 663.312 643.508 662.545C643.508 661.788 643.399 661.125 643.181 660.557C642.963 659.989 642.644 659.546 642.222 659.229C641.801 658.911 641.28 658.753 640.66 658.753C640.021 658.753 639.488 658.919 639.062 659.25C638.636 659.581 638.314 660.034 638.096 660.607C637.883 661.179 637.776 661.826 637.776 662.545C637.776 663.275 637.885 663.93 638.103 664.513C638.321 665.095 638.643 665.557 639.069 665.898C639.5 666.234 640.03 666.402 640.66 666.402ZM656.551 659.754L654.627 660.095C654.546 659.849 654.418 659.615 654.243 659.392C654.073 659.17 653.841 658.987 653.547 658.845C653.254 658.703 652.887 658.632 652.446 658.632C651.845 658.632 651.343 658.767 650.941 659.037C650.538 659.302 650.337 659.645 650.337 660.067C650.337 660.431 650.472 660.725 650.742 660.947C651.012 661.17 651.447 661.352 652.049 661.494L653.782 661.892C654.785 662.124 655.533 662.482 656.026 662.964C656.518 663.447 656.765 664.075 656.765 664.847C656.765 665.5 656.575 666.082 656.196 666.594C655.822 667.1 655.299 667.498 654.627 667.787C653.959 668.076 653.185 668.22 652.304 668.22C651.083 668.22 650.086 667.96 649.314 667.439C648.542 666.913 648.069 666.168 647.894 665.202L649.946 664.889C650.074 665.424 650.337 665.829 650.735 666.104C651.132 666.374 651.651 666.509 652.29 666.509C652.986 666.509 653.542 666.364 653.959 666.075C654.376 665.782 654.584 665.424 654.584 665.003C654.584 664.662 654.456 664.375 654.201 664.143C653.95 663.911 653.564 663.736 653.043 663.618L651.196 663.213C650.178 662.981 649.426 662.612 648.938 662.105C648.455 661.598 648.213 660.957 648.213 660.18C648.213 659.536 648.393 658.973 648.753 658.49C649.113 658.007 649.61 657.631 650.245 657.361C650.879 657.086 651.606 656.949 652.425 656.949C653.604 656.949 654.532 657.205 655.209 657.716C655.886 658.223 656.334 658.902 656.551 659.754Z" fill="#7D7D7D"/>
<rect x="610.5" y="628.5" width="25" height="21" rx="1.5" fill="#ADE8F4"/>
<rect x="610.5" y="628.5" width="25" height="21" rx="1.5" stroke="#0077B6"/>
<path d="M618.295 633.679C618.713 633.682 619.131 633.762 619.548 633.918C619.966 634.073 620.347 634.332 620.692 634.693C621.036 635.051 621.313 635.54 621.522 636.16C621.731 636.78 621.835 637.557 621.835 638.491C621.835 639.396 621.749 640.2 621.577 640.903C621.408 641.602 621.162 642.192 620.841 642.673C620.523 643.153 620.135 643.518 619.678 643.766C619.223 644.015 618.71 644.139 618.136 644.139C617.566 644.139 617.058 644.027 616.61 643.801C616.166 643.572 615.801 643.256 615.516 642.852C615.235 642.444 615.054 641.972 614.974 641.435H616.188C616.297 641.902 616.514 642.288 616.839 642.593C617.167 642.895 617.599 643.045 618.136 643.045C618.922 643.045 619.542 642.702 619.996 642.016C620.453 641.33 620.682 640.361 620.682 639.108H620.602C620.417 639.386 620.196 639.627 619.941 639.829C619.686 640.031 619.402 640.187 619.091 640.296C618.779 640.406 618.448 640.46 618.097 640.46C617.513 640.46 616.978 640.316 616.491 640.028C616.007 639.736 615.619 639.337 615.327 638.83C615.039 638.319 614.895 637.736 614.895 637.08C614.895 636.456 615.034 635.886 615.312 635.369C615.594 634.849 615.989 634.435 616.496 634.126C617.006 633.818 617.606 633.669 618.295 633.679ZM618.295 634.773C617.878 634.773 617.502 634.877 617.167 635.086C616.835 635.291 616.572 635.57 616.376 635.921C616.184 636.269 616.088 636.655 616.088 637.08C616.088 637.504 616.181 637.89 616.366 638.238C616.555 638.583 616.812 638.858 617.137 639.063C617.465 639.265 617.838 639.366 618.256 639.366C618.571 639.366 618.864 639.305 619.136 639.183C619.407 639.057 619.644 638.886 619.847 638.67C620.052 638.452 620.213 638.205 620.329 637.93C620.445 637.651 620.503 637.361 620.503 637.06C620.503 636.662 620.407 636.289 620.214 635.941C620.026 635.593 619.764 635.311 619.429 635.096C619.098 634.88 618.72 634.773 618.295 634.773ZM626.981 644.139C626.324 644.139 625.739 644.027 625.226 643.801C624.715 643.576 624.309 643.263 624.008 642.862C623.709 642.457 623.547 641.988 623.52 641.455H624.773C624.8 641.783 624.912 642.066 625.111 642.305C625.31 642.54 625.57 642.722 625.892 642.852C626.213 642.981 626.57 643.045 626.961 643.045C627.398 643.045 627.786 642.969 628.124 642.817C628.462 642.664 628.727 642.452 628.92 642.18C629.112 641.909 629.208 641.594 629.208 641.236C629.208 640.861 629.115 640.531 628.93 640.246C628.744 639.958 628.472 639.733 628.114 639.57C627.756 639.408 627.319 639.327 626.802 639.327H625.986V638.233H626.802C627.206 638.233 627.561 638.16 627.866 638.014C628.174 637.868 628.414 637.663 628.586 637.398C628.762 637.133 628.85 636.821 628.85 636.463C628.85 636.118 628.774 635.818 628.621 635.563C628.469 635.308 628.253 635.109 627.975 634.967C627.7 634.824 627.375 634.753 627.001 634.753C626.649 634.753 626.318 634.817 626.006 634.947C625.698 635.073 625.446 635.257 625.251 635.499C625.055 635.737 624.949 636.026 624.932 636.364H623.739C623.759 635.83 623.92 635.363 624.221 634.962C624.523 634.557 624.917 634.242 625.405 634.017C625.895 633.792 626.434 633.679 627.02 633.679C627.65 633.679 628.19 633.807 628.641 634.062C629.092 634.314 629.438 634.647 629.68 635.061C629.922 635.475 630.043 635.923 630.043 636.403C630.043 636.977 629.892 637.466 629.591 637.87C629.292 638.274 628.886 638.554 628.373 638.71V638.79C629.016 638.896 629.518 639.169 629.879 639.61C630.24 640.048 630.421 640.589 630.421 641.236C630.421 641.789 630.27 642.286 629.969 642.727C629.67 643.165 629.263 643.509 628.746 643.761C628.229 644.013 627.64 644.139 626.981 644.139Z" fill="#0096C7"/>
<circle cx="623" cy="262" r="49.5" stroke="#0077B6"/>
<path d="M606.334 278.667H639.667C640.772 278.667 641.832 278.228 642.613 277.446C643.395 276.665 643.834 275.605 643.834 274.5V253.667C643.834 252.562 643.395 251.502 642.613 250.72C641.832 249.939 640.772 249.5 639.667 249.5H623.146C622.46 249.496 621.785 249.323 621.182 248.996C620.578 248.669 620.065 248.198 619.688 247.625L617.979 245.125C617.602 244.552 617.089 244.081 616.486 243.754C615.882 243.427 615.207 243.254 614.521 243.25H606.334C605.229 243.25 604.169 243.689 603.387 244.47C602.606 245.252 602.167 246.312 602.167 247.417V274.5C602.167 276.792 604.042 278.667 606.334 278.667Z" stroke="#0077B6" stroke-width="2" stroke-linecap="round" stroke-linejoin="round"/>
<path d="M585.679 320.185H583.463C583.378 319.711 583.219 319.295 582.987 318.935C582.755 318.575 582.471 318.269 582.135 318.018C581.799 317.768 581.422 317.578 581.006 317.45C580.594 317.322 580.156 317.259 579.692 317.259C578.854 317.259 578.103 317.469 577.44 317.891C576.782 318.312 576.261 318.93 575.878 319.744C575.499 320.559 575.31 321.553 575.31 322.727C575.31 323.911 575.499 324.91 575.878 325.724C576.261 326.539 576.785 327.154 577.447 327.571C578.11 327.988 578.856 328.196 579.685 328.196C580.144 328.196 580.58 328.134 580.991 328.011C581.408 327.884 581.785 327.696 582.121 327.45C582.457 327.204 582.741 326.903 582.973 326.548C583.21 326.188 583.373 325.777 583.463 325.312L585.679 325.32C585.561 326.035 585.331 326.693 584.99 327.294C584.654 327.891 584.221 328.407 583.69 328.842C583.165 329.273 582.563 329.607 581.886 329.844C581.209 330.08 580.471 330.199 579.67 330.199C578.411 330.199 577.289 329.901 576.304 329.304C575.319 328.703 574.543 327.843 573.974 326.726C573.411 325.608 573.129 324.276 573.129 322.727C573.129 321.174 573.413 319.841 573.982 318.729C574.55 317.611 575.326 316.754 576.311 316.158C577.296 315.556 578.416 315.256 579.67 315.256C580.442 315.256 581.162 315.367 581.83 315.589C582.502 315.807 583.106 316.129 583.641 316.555C584.176 316.977 584.618 317.493 584.969 318.104C585.319 318.71 585.556 319.403 585.679 320.185ZM592.48 330.22C591.457 330.22 590.565 329.986 589.802 329.517C589.04 329.048 588.448 328.393 588.027 327.55C587.605 326.707 587.395 325.722 587.395 324.595C587.395 323.464 587.605 322.474 588.027 321.626C588.448 320.779 589.04 320.121 589.802 319.652C590.565 319.183 591.457 318.949 592.48 318.949C593.502 318.949 594.395 319.183 595.157 319.652C595.92 320.121 596.511 320.779 596.933 321.626C597.354 322.474 597.565 323.464 597.565 324.595C597.565 325.722 597.354 326.707 596.933 327.55C596.511 328.393 595.92 329.048 595.157 329.517C594.395 329.986 593.502 330.22 592.48 330.22ZM592.487 328.438C593.15 328.438 593.699 328.262 594.135 327.912C594.57 327.562 594.892 327.095 595.1 326.513C595.314 325.93 595.42 325.289 595.42 324.588C595.42 323.892 595.314 323.253 595.1 322.67C594.892 322.083 594.57 321.612 594.135 321.257C593.699 320.902 593.15 320.724 592.487 320.724C591.819 320.724 591.265 320.902 590.825 321.257C590.389 321.612 590.065 322.083 589.852 322.67C589.644 323.253 589.539 323.892 589.539 324.588C589.539 325.289 589.644 325.93 589.852 326.513C590.065 327.095 590.389 327.562 590.825 327.912C591.265 328.262 591.819 328.438 592.487 328.438ZM601.718 330L598.508 319.091H600.703L602.841 327.102H602.947L605.092 319.091H607.287L609.417 327.067H609.524L611.647 319.091H613.842L610.639 330H608.473L606.257 322.124H606.093L603.877 330H601.718ZM619.87 330.22C618.848 330.22 617.955 329.986 617.193 329.517C616.431 329.048 615.839 328.393 615.417 327.55C614.996 326.707 614.785 325.722 614.785 324.595C614.785 323.464 614.996 322.474 615.417 321.626C615.839 320.779 616.431 320.121 617.193 319.652C617.955 319.183 618.848 318.949 619.87 318.949C620.893 318.949 621.786 319.183 622.548 319.652C623.31 320.121 623.902 320.779 624.324 321.626C624.745 322.474 624.956 323.464 624.956 324.595C624.956 325.722 624.745 326.707 624.324 327.55C623.902 328.393 623.31 329.048 622.548 329.517C621.786 329.986 620.893 330.22 619.87 330.22ZM619.877 328.438C620.54 328.438 621.09 328.262 621.525 327.912C621.961 327.562 622.283 327.095 622.491 326.513C622.704 325.93 622.811 325.289 622.811 324.588C622.811 323.892 622.704 323.253 622.491 322.67C622.283 322.083 621.961 321.612 621.525 321.257C621.09 320.902 620.54 320.724 619.877 320.724C619.21 320.724 618.656 320.902 618.216 321.257C617.78 321.612 617.456 322.083 617.243 322.67C617.034 323.253 616.93 323.892 616.93 324.588C616.93 325.289 617.034 325.93 617.243 326.513C617.456 327.095 617.78 327.562 618.216 327.912C618.656 328.262 619.21 328.438 619.877 328.438ZM627.076 330V319.091H629.129V320.824H629.242C629.441 320.237 629.791 319.775 630.293 319.439C630.8 319.098 631.373 318.928 632.012 318.928C632.145 318.928 632.301 318.932 632.481 318.942C632.665 318.951 632.81 318.963 632.914 318.977V321.009C632.829 320.985 632.677 320.959 632.46 320.93C632.242 320.897 632.024 320.881 631.806 320.881C631.304 320.881 630.857 320.987 630.464 321.2C630.076 321.409 629.768 321.7 629.54 322.074C629.313 322.443 629.2 322.865 629.2 323.338V330H627.076ZM636.455 326.3L636.441 323.707H636.81L641.157 319.091H643.699L638.742 324.347H638.408L636.455 326.3ZM634.502 330V315.455H636.625V330H634.502ZM641.391 330L637.485 324.815L638.948 323.331L643.998 330H641.391ZM649.637 330.22C648.562 330.22 647.637 329.991 646.86 329.531C646.088 329.067 645.492 328.416 645.07 327.578C644.654 326.735 644.445 325.748 644.445 324.616C644.445 323.499 644.654 322.514 645.07 321.662C645.492 320.81 646.079 320.144 646.832 319.666C647.589 319.188 648.475 318.949 649.488 318.949C650.103 318.949 650.7 319.051 651.278 319.254C651.855 319.458 652.374 319.777 652.833 320.213C653.292 320.649 653.655 321.214 653.92 321.911C654.185 322.602 654.317 323.442 654.317 324.432V325.185H645.646V323.594H652.237C652.237 323.035 652.123 322.54 651.896 322.109C651.668 321.674 651.349 321.33 650.937 321.08C650.53 320.829 650.051 320.703 649.502 320.703C648.906 320.703 648.385 320.85 647.94 321.143C647.499 321.432 647.158 321.811 646.917 322.28C646.68 322.744 646.562 323.248 646.562 323.793V325.036C646.562 325.765 646.69 326.385 646.945 326.896C647.206 327.408 647.568 327.798 648.032 328.068C648.496 328.333 649.038 328.466 649.658 328.466C650.061 328.466 650.428 328.409 650.759 328.295C651.091 328.177 651.377 328.002 651.619 327.77C651.86 327.538 652.045 327.251 652.173 326.911L654.183 327.273C654.022 327.865 653.733 328.383 653.316 328.828C652.904 329.268 652.386 329.612 651.761 329.858C651.14 330.099 650.433 330.22 649.637 330.22ZM656.424 330V319.091H658.476V320.824H658.59C658.789 320.237 659.139 319.775 659.641 319.439C660.148 319.098 660.721 318.928 661.36 318.928C661.492 318.928 661.649 318.932 661.828 318.942C662.013 318.951 662.158 318.963 662.262 318.977V321.009C662.176 320.985 662.025 320.959 661.807 320.93C661.589 320.897 661.372 320.881 661.154 320.881C660.652 320.881 660.204 320.987 659.811 321.2C659.423 321.409 659.115 321.7 658.888 322.074C658.661 322.443 658.547 322.865 658.547 323.338V330H656.424ZM672.024 321.754L670.099 322.095C670.019 321.849 669.891 321.615 669.716 321.392C669.545 321.17 669.313 320.987 669.02 320.845C668.726 320.703 668.359 320.632 667.919 320.632C667.318 320.632 666.816 320.767 666.413 321.037C666.011 321.302 665.81 321.645 665.81 322.067C665.81 322.431 665.945 322.725 666.214 322.947C666.484 323.17 666.92 323.352 667.521 323.494L669.254 323.892C670.258 324.124 671.006 324.482 671.499 324.964C671.991 325.447 672.237 326.075 672.237 326.847C672.237 327.5 672.048 328.082 671.669 328.594C671.295 329.1 670.772 329.498 670.099 329.787C669.432 330.076 668.658 330.22 667.777 330.22C666.555 330.22 665.559 329.96 664.787 329.439C664.015 328.913 663.542 328.168 663.366 327.202L665.419 326.889C665.547 327.424 665.81 327.829 666.207 328.104C666.605 328.374 667.124 328.509 667.763 328.509C668.459 328.509 669.015 328.364 669.432 328.075C669.848 327.782 670.057 327.424 670.057 327.003C670.057 326.662 669.929 326.375 669.673 326.143C669.422 325.911 669.036 325.736 668.516 325.618L666.669 325.213C665.651 324.981 664.898 324.612 664.411 324.105C663.928 323.598 663.686 322.957 663.686 322.18C663.686 321.536 663.866 320.973 664.226 320.49C664.586 320.007 665.083 319.631 665.717 319.361C666.352 319.086 667.079 318.949 667.898 318.949C669.077 318.949 670.005 319.205 670.682 319.716C671.359 320.223 671.806 320.902 672.024 321.754Z" fill="#7D7D7D"/>
<rect x="610.5" y="290.5" width="25" height="21" rx="1.5" fill="#ADE8F4"/>
<rect x="610.5" y="290.5" width="25" height="21" rx="1.5" stroke="#0077B6"/>
<path d="M615.054 306V305.105L618.415 301.426C618.809 300.995 619.134 300.621 619.389 300.303C619.644 299.981 619.833 299.679 619.956 299.398C620.082 299.113 620.145 298.814 620.145 298.503C620.145 298.145 620.059 297.835 619.886 297.573C619.717 297.311 619.485 297.109 619.19 296.967C618.895 296.824 618.564 296.753 618.196 296.753C617.805 296.753 617.464 296.834 617.172 296.996C616.884 297.156 616.66 297.379 616.501 297.668C616.345 297.956 616.267 298.294 616.267 298.682H615.094C615.094 298.085 615.231 297.562 615.506 297.111C615.781 296.66 616.156 296.309 616.63 296.057C617.107 295.805 617.643 295.679 618.236 295.679C618.832 295.679 619.361 295.805 619.822 296.057C620.282 296.309 620.644 296.648 620.906 297.076C621.167 297.504 621.298 297.979 621.298 298.503C621.298 298.877 621.23 299.244 621.094 299.602C620.962 299.956 620.73 300.352 620.398 300.79C620.07 301.224 619.615 301.754 619.031 302.381L616.744 304.827V304.906H621.477V306H615.054ZM626.721 306.139C626.065 306.139 625.48 306.027 624.966 305.801C624.455 305.576 624.049 305.263 623.748 304.862C623.45 304.457 623.287 303.988 623.261 303.455H624.513C624.54 303.783 624.653 304.066 624.852 304.305C625.05 304.54 625.311 304.722 625.632 304.852C625.954 304.981 626.31 305.045 626.701 305.045C627.138 305.045 627.526 304.969 627.864 304.817C628.202 304.664 628.468 304.452 628.66 304.18C628.852 303.909 628.948 303.594 628.948 303.236C628.948 302.861 628.855 302.531 628.67 302.246C628.484 301.958 628.212 301.733 627.854 301.57C627.496 301.408 627.059 301.327 626.542 301.327H625.727V300.233H626.542C626.946 300.233 627.301 300.16 627.606 300.014C627.914 299.868 628.154 299.663 628.327 299.398C628.502 299.133 628.59 298.821 628.59 298.463C628.59 298.118 628.514 297.818 628.362 297.563C628.209 297.308 627.994 297.109 627.715 296.967C627.44 296.824 627.115 296.753 626.741 296.753C626.389 296.753 626.058 296.817 625.746 296.947C625.438 297.073 625.186 297.257 624.991 297.499C624.795 297.737 624.689 298.026 624.673 298.364H623.479C623.499 297.83 623.66 297.363 623.962 296.962C624.263 296.557 624.658 296.242 625.145 296.017C625.635 295.792 626.174 295.679 626.761 295.679C627.39 295.679 627.931 295.807 628.381 296.062C628.832 296.314 629.179 296.647 629.42 297.061C629.662 297.475 629.783 297.923 629.783 298.403C629.783 298.977 629.633 299.466 629.331 299.87C629.033 300.274 628.627 300.554 628.113 300.71V300.79C628.756 300.896 629.258 301.169 629.619 301.61C629.981 302.048 630.161 302.589 630.161 303.236C630.161 303.789 630.01 304.286 629.709 304.727C629.411 305.165 629.003 305.509 628.486 305.761C627.969 306.013 627.38 306.139 626.721 306.139Z" fill="#0096C7"/>
<circle cx="442" cy="183" r="49.5" stroke="#0077B6"/>
<path d="M425.334 199.667H458.667C459.772 199.667 460.832 199.228 461.613 198.446C462.395 197.665 462.834 196.605 462.834 195.5V174.667C462.834 173.562 462.395 172.502 461.613 171.72C460.832 170.939 459.772 170.5 458.667 170.5H442.146C441.46 170.496 440.785 170.323 440.182 169.996C439.578 169.669 439.065 169.198 438.688 168.625L436.979 166.125C436.602 165.552 436.089 165.081 435.486 164.754C434.882 164.427 434.207 164.254 433.521 164.25H425.334C424.229 164.25 423.169 164.689 422.387 165.47C421.606 166.252 421.167 167.312 421.167 168.417V195.5C421.167 197.792 423.042 199.667 425.334 199.667Z" stroke="#0077B6" stroke-width="2" stroke-linecap="round" stroke-linejoin="round"/>
<path d="M442 178.833V191.333" stroke="#0077B6" stroke-width="2" stroke-linecap="round" stroke-linejoin="round"/>
<path d="M435.75 185.083H448.25" stroke="#0077B6" stroke-width="2" stroke-linecap="round" stroke-linejoin="round"/>
<path d="M424.179 241.185H421.963C421.878 240.711 421.719 240.295 421.487 239.935C421.255 239.575 420.971 239.269 420.635 239.018C420.299 238.768 419.922 238.578 419.506 238.45C419.094 238.322 418.656 238.259 418.192 238.259C417.354 238.259 416.603 238.469 415.94 238.891C415.282 239.312 414.761 239.93 414.378 240.744C413.999 241.559 413.81 242.553 413.81 243.727C413.81 244.911 413.999 245.91 414.378 246.724C414.761 247.539 415.285 248.154 415.947 248.571C416.61 248.988 417.356 249.196 418.185 249.196C418.644 249.196 419.08 249.134 419.491 249.011C419.908 248.884 420.285 248.696 420.621 248.45C420.957 248.204 421.241 247.903 421.473 247.548C421.71 247.188 421.873 246.777 421.963 246.312L424.179 246.32C424.061 247.035 423.831 247.693 423.49 248.294C423.154 248.891 422.721 249.407 422.19 249.842C421.665 250.273 421.063 250.607 420.386 250.844C419.709 251.08 418.971 251.199 418.17 251.199C416.911 251.199 415.789 250.901 414.804 250.304C413.819 249.703 413.043 248.843 412.474 247.726C411.911 246.608 411.629 245.276 411.629 243.727C411.629 242.174 411.913 240.841 412.482 239.729C413.05 238.611 413.826 237.754 414.811 237.158C415.796 236.556 416.916 236.256 418.17 236.256C418.942 236.256 419.662 236.367 420.33 236.589C421.002 236.807 421.606 237.129 422.141 237.555C422.676 237.977 423.118 238.493 423.469 239.104C423.819 239.71 424.056 240.403 424.179 241.185ZM426.385 251V240.091H428.437V241.824H428.551C428.75 241.237 429.1 240.775 429.602 240.439C430.109 240.098 430.681 239.928 431.321 239.928C431.453 239.928 431.609 239.932 431.789 239.942C431.974 239.951 432.118 239.963 432.223 239.977V242.009C432.137 241.985 431.986 241.959 431.768 241.93C431.55 241.897 431.333 241.881 431.115 241.881C430.613 241.881 430.165 241.987 429.772 242.2C429.384 242.409 429.076 242.7 428.849 243.074C428.622 243.443 428.508 243.865 428.508 244.338V251H426.385ZM438.121 251.22C437.047 251.22 436.121 250.991 435.344 250.531C434.573 250.067 433.976 249.416 433.555 248.578C433.138 247.735 432.93 246.748 432.93 245.616C432.93 244.499 433.138 243.514 433.555 242.662C433.976 241.81 434.563 241.144 435.316 240.666C436.074 240.188 436.959 239.949 437.972 239.949C438.588 239.949 439.184 240.051 439.762 240.254C440.34 240.458 440.858 240.777 441.317 241.213C441.777 241.649 442.139 242.214 442.404 242.911C442.669 243.602 442.802 244.442 442.802 245.432V246.185H434.13V244.594H440.721C440.721 244.035 440.607 243.54 440.38 243.109C440.153 242.674 439.833 242.33 439.421 242.08C439.014 241.829 438.536 241.703 437.987 241.703C437.39 241.703 436.869 241.85 436.424 242.143C435.984 242.432 435.643 242.811 435.401 243.28C435.165 243.744 435.046 244.248 435.046 244.793V246.036C435.046 246.765 435.174 247.385 435.43 247.896C435.69 248.408 436.052 248.798 436.516 249.068C436.98 249.333 437.522 249.466 438.143 249.466C438.545 249.466 438.912 249.409 439.244 249.295C439.575 249.177 439.862 249.002 440.103 248.77C440.344 248.538 440.529 248.251 440.657 247.911L442.667 248.273C442.506 248.865 442.217 249.383 441.8 249.828C441.388 250.268 440.87 250.612 440.245 250.858C439.625 251.099 438.917 251.22 438.121 251.22ZM448.083 251.241C447.391 251.241 446.766 251.114 446.208 250.858C445.649 250.598 445.206 250.221 444.88 249.729C444.558 249.236 444.397 248.633 444.397 247.918C444.397 247.302 444.515 246.795 444.752 246.398C444.989 246 445.308 245.685 445.711 245.453C446.113 245.221 446.563 245.046 447.06 244.928C447.557 244.809 448.064 244.719 448.58 244.658C449.233 244.582 449.764 244.52 450.171 244.473C450.578 244.421 450.874 244.338 451.059 244.224C451.243 244.111 451.336 243.926 451.336 243.67V243.621C451.336 243 451.16 242.52 450.81 242.179C450.464 241.838 449.948 241.668 449.262 241.668C448.547 241.668 447.983 241.826 447.571 242.143C447.164 242.456 446.882 242.804 446.726 243.188L444.73 242.733C444.967 242.07 445.313 241.535 445.767 241.128C446.227 240.716 446.755 240.418 447.351 240.233C447.948 240.044 448.575 239.949 449.233 239.949C449.669 239.949 450.131 240.001 450.618 240.105C451.111 240.205 451.57 240.389 451.996 240.659C452.427 240.929 452.78 241.315 453.054 241.817C453.329 242.314 453.466 242.96 453.466 243.756V251H451.392V249.509H451.307C451.17 249.783 450.964 250.053 450.689 250.318C450.415 250.583 450.062 250.804 449.631 250.979C449.2 251.154 448.684 251.241 448.083 251.241ZM448.544 249.537C449.132 249.537 449.633 249.421 450.05 249.189C450.471 248.957 450.791 248.654 451.009 248.28C451.231 247.901 451.343 247.496 451.343 247.065V245.659C451.267 245.735 451.12 245.806 450.902 245.872C450.689 245.934 450.445 245.988 450.171 246.036C449.896 246.078 449.629 246.118 449.368 246.156C449.108 246.189 448.89 246.218 448.715 246.241C448.303 246.294 447.926 246.381 447.586 246.504C447.249 246.627 446.98 246.805 446.776 247.037C446.577 247.264 446.478 247.567 446.478 247.946C446.478 248.472 446.672 248.869 447.06 249.139C447.448 249.404 447.943 249.537 448.544 249.537ZM461.137 240.091V241.795H455.178V240.091H461.137ZM456.776 237.477H458.9V247.797C458.9 248.209 458.961 248.519 459.085 248.727C459.208 248.931 459.366 249.071 459.56 249.146C459.759 249.217 459.975 249.253 460.207 249.253C460.377 249.253 460.526 249.241 460.654 249.217C460.782 249.194 460.881 249.175 460.952 249.161L461.336 250.915C461.213 250.962 461.038 251.009 460.81 251.057C460.583 251.109 460.299 251.137 459.958 251.142C459.399 251.152 458.879 251.052 458.396 250.844C457.913 250.635 457.522 250.313 457.224 249.878C456.925 249.442 456.776 248.895 456.776 248.237V237.477ZM467.821 251.22C466.746 251.22 465.82 250.991 465.044 250.531C464.272 250.067 463.675 249.416 463.254 248.578C462.837 247.735 462.629 246.748 462.629 245.616C462.629 244.499 462.837 243.514 463.254 242.662C463.675 241.81 464.262 241.144 465.015 240.666C465.773 240.188 466.658 239.949 467.672 239.949C468.287 239.949 468.884 240.051 469.461 240.254C470.039 240.458 470.557 240.777 471.017 241.213C471.476 241.649 471.838 242.214 472.103 242.911C472.368 243.602 472.501 244.442 472.501 245.432V246.185H463.829V244.594H470.42C470.42 244.035 470.306 243.54 470.079 243.109C469.852 242.674 469.532 242.33 469.12 242.08C468.713 241.829 468.235 241.703 467.686 241.703C467.089 241.703 466.568 241.85 466.123 242.143C465.683 242.432 465.342 242.811 465.1 243.28C464.864 243.744 464.745 244.248 464.745 244.793V246.036C464.745 246.765 464.873 247.385 465.129 247.896C465.389 248.408 465.752 248.798 466.216 249.068C466.68 249.333 467.222 249.466 467.842 249.466C468.244 249.466 468.611 249.409 468.943 249.295C469.274 249.177 469.561 249.002 469.802 248.77C470.044 248.538 470.228 248.251 470.356 247.911L472.366 248.273C472.205 248.865 471.916 249.383 471.5 249.828C471.088 250.268 470.569 250.612 469.944 250.858C469.324 251.099 468.616 251.22 467.821 251.22Z" fill="#7D7D7D"/>
<path d="M582.066 289L476.707 395.773" stroke="#0077B6" stroke-opacity="0.1" stroke-width="3"/>
<path d="M478 464.707L584.773 570.066" stroke="#0077B6" stroke-opacity="0.1" stroke-width="3"/>
<path d="M490 439L639 439" stroke="#0077B6" stroke-opacity="0.1" stroke-width="3"/>
<path d="M441 381V232" stroke="#0077B6" stroke-opacity="0.1" stroke-width="3"/>
</svg>
